<svg width="96" height="25" viewBox="0 0 96 25" fill="none" xmlns="http://www.w3.org/2000/svg">
<path d="M30.3174 5.32218C29.2289 5.32218 28.3684 5.67533 27.736 6.38165C27.1082 7.08357 26.7943 8.04653 26.7943 9.27051C26.7943 10.5296 27.0969 11.5035 27.7022 12.1923C28.3119 12.8767 29.1792 13.2188 30.3039 13.2188C30.995 13.2188 31.7831 13.0982 32.6685 12.8569V13.8374C31.9819 14.0875 31.135 14.2125 30.1277 14.2125C28.6688 14.2125 27.5418 13.7826 26.7468 12.9227C25.9564 12.0629 25.5612 10.8411 25.5612 9.25735C25.5612 8.26588 25.7509 7.39725 26.1303 6.65145C26.5142 5.90565 27.0653 5.33095 27.7835 4.92734C28.5062 4.52374 29.3553 4.32193 30.331 4.32193C31.3699 4.32193 32.2777 4.50619 33.0546 4.8747L32.5668 5.83546C31.817 5.49327 31.0672 5.32218 30.3174 5.32218Z" fill="white"/>
<path d="M39.2269 14.0809L39.0034 13.0543H38.9492C38.5788 13.5062 38.2084 13.8133 37.838 13.9756C37.4721 14.1335 37.0137 14.2125 36.4626 14.2125C35.7264 14.2125 35.1482 14.0283 34.7281 13.6597C34.3126 13.2912 34.1048 12.767 34.1048 12.087C34.1048 10.6305 35.304 9.86715 37.7025 9.79696L38.9627 9.75747V9.31C38.9627 8.74407 38.8362 8.3273 38.5833 8.05969C38.3349 7.78769 37.9351 7.6517 37.3841 7.6517C36.7653 7.6517 36.0651 7.83595 35.2837 8.20446L34.9382 7.36873C35.304 7.1757 35.7038 7.02435 36.1374 6.91467C36.5755 6.805 37.0137 6.75016 37.4518 6.75016C38.3371 6.75016 38.9921 6.941 39.4167 7.32267C39.8458 7.70434 40.0603 8.31633 40.0603 9.15864V14.0809H39.2269ZM36.6862 13.311C37.3863 13.311 37.9351 13.1245 38.3326 12.7516C38.7346 12.3787 38.9356 11.8567 38.9356 11.1855V10.534L37.8109 10.58C36.9166 10.6108 36.2707 10.7468 35.8732 10.988C35.4802 11.2249 35.2837 11.5956 35.2837 12.1002C35.2837 12.495 35.4057 12.7955 35.6496 13.0017C35.898 13.2079 36.2436 13.311 36.6862 13.311Z" fill="white"/>
<path d="M45.7719 6.737C46.1016 6.737 46.3975 6.76332 46.6595 6.81596L46.5036 7.82937C46.1965 7.76357 45.9255 7.73066 45.6906 7.73066C45.0898 7.73066 44.5749 7.96756 44.1458 8.44136C43.7212 8.91516 43.5089 9.50522 43.5089 10.2115V14.0809H42.3842V6.86861H43.3125L43.4412 8.20446H43.4954C43.7709 7.73505 44.1029 7.37312 44.4914 7.11867C44.8798 6.86422 45.3067 6.737 45.7719 6.737Z" fill="white"/>
<path d="M53.1028 13.1136H53.0418C52.5224 13.8462 51.7455 14.2125 50.7111 14.2125C49.74 14.2125 48.9834 13.8901 48.4414 13.2452C47.9039 12.6003 47.6351 11.6834 47.6351 10.4945C47.6351 9.30561 47.9061 8.38214 48.4481 7.72408C48.9902 7.06603 49.7445 6.737 50.7111 6.737C51.7184 6.737 52.4907 7.09235 53.0282 7.80305H53.1163L53.0689 7.28318L53.0418 6.77648V3.84155H54.1665V14.0809H53.2518L53.1028 13.1136ZM50.8534 13.2978C51.6212 13.2978 52.1768 13.096 52.5201 12.6924C52.8679 12.2844 53.0418 11.6285 53.0418 10.7248V10.4945C53.0418 9.47232 52.8656 8.74407 52.5133 8.30975C52.1655 7.87105 51.6077 7.6517 50.8398 7.6517C50.1804 7.6517 49.6745 7.90176 49.3222 8.40188C48.9744 8.89761 48.8005 9.59954 48.8005 10.5077C48.8005 11.4289 48.9744 12.1243 49.3222 12.5937C49.67 13.0631 50.1804 13.2978 50.8534 13.2978Z" fill="white"/>
<path d="M59.9458 6.737C60.2756 6.737 60.5714 6.76332 60.8334 6.81596L60.6776 7.82937C60.3704 7.76357 60.0994 7.73066 59.8645 7.73066C59.2638 7.73066 58.7489 7.96756 58.3198 8.44136C57.8952 8.91516 57.6829 9.50522 57.6829 10.2115V14.0809H56.5582V6.86861H57.4864L57.6151 8.20446H57.6693C57.9449 7.73505 58.2769 7.37312 58.6653 7.11867C59.0538 6.86422 59.4806 6.737 59.9458 6.737Z" fill="white"/>
<path d="M65.3593 14.2125C64.2617 14.2125 63.3945 13.8879 62.7576 13.2386C62.1252 12.5893 61.809 11.6878 61.809 10.534C61.809 9.37141 62.1026 8.44794 62.6898 7.76357C63.2815 7.07919 64.0743 6.737 65.068 6.737C65.9984 6.737 66.7347 7.03532 67.2767 7.63195C67.8187 8.2242 68.0898 9.00729 68.0898 9.98121V10.6722H62.9744C62.997 11.5189 63.216 12.1616 63.6316 12.6003C64.0517 13.039 64.6411 13.2583 65.4 13.2583C66.1994 13.2583 66.9899 13.096 67.7713 12.7714V13.7453C67.3738 13.912 66.9967 14.0304 66.6398 14.1006C66.2875 14.1752 65.8607 14.2125 65.3593 14.2125ZM65.0544 7.6517C64.4582 7.6517 63.9817 7.84034 63.6248 8.21762C63.2725 8.59491 63.0647 9.11697 63.0015 9.7838H66.8837C66.8837 9.09503 66.7257 8.56859 66.4095 8.20446C66.0933 7.83595 65.6416 7.6517 65.0544 7.6517Z" fill="white"/>
<path d="M74.5805 14.0809L74.3569 13.0543H74.3027C73.9323 13.5062 73.5619 13.8133 73.1916 13.9756C72.8257 14.1335 72.3672 14.2125 71.8162 14.2125C71.0799 14.2125 70.5018 14.0283 70.0817 13.6597C69.6661 13.2912 69.4584 12.767 69.4584 12.087C69.4584 10.6305 70.6576 9.86715 73.0561 9.79696L74.3163 9.75747V9.31C74.3163 8.74407 74.1898 8.3273 73.9368 8.05969C73.6884 7.78769 73.2887 7.6517 72.7376 7.6517C72.1188 7.6517 71.4187 7.83595 70.6373 8.20446L70.2917 7.36873C70.6576 7.1757 71.0573 7.02435 71.491 6.91467C71.9291 6.805 72.3672 6.75016 72.8054 6.75016C73.6907 6.75016 74.3456 6.941 74.7702 7.32267C75.1993 7.70434 75.4139 8.31633 75.4139 9.15864V14.0809H74.5805ZM72.0398 13.311C72.7399 13.311 73.2887 13.1245 73.6862 12.7516C74.0882 12.3787 74.2892 11.8567 74.2892 11.1855V10.534L73.1645 10.58C72.2701 10.6108 71.6242 10.7468 71.2267 10.988C70.8338 11.2249 70.6373 11.5956 70.6373 12.1002C70.6373 12.495 70.7592 12.7955 71.0031 13.0017C71.2516 13.2079 71.5971 13.311 72.0398 13.311Z" fill="white"/>
<path d="M87.2029 14.0809V9.38896C87.2029 8.81426 87.0764 8.38433 86.8235 8.09917C86.5705 7.80963 86.1776 7.66486 85.6446 7.66486C84.9445 7.66486 84.4273 7.86008 84.093 8.25053C83.7588 8.64097 83.5917 9.242 83.5917 10.0536V14.0809H82.467V9.38896C82.467 8.81426 82.3405 8.38433 82.0875 8.09917C81.8346 7.80963 81.4394 7.66486 80.9019 7.66486C80.1972 7.66486 79.68 7.87105 79.3503 8.28343C79.0251 8.69142 78.8625 9.36264 78.8625 10.2971V14.0809H77.7378V6.86861H78.6525L78.8354 7.85569H78.8896C79.1019 7.50473 79.4 7.23054 79.7839 7.03312C80.1724 6.83571 80.606 6.737 81.0848 6.737C82.2456 6.737 83.0045 7.14499 83.3613 7.96098H83.4155C83.6368 7.5837 83.9575 7.28538 84.3776 7.06603C84.7977 6.84667 85.2764 6.737 85.814 6.737C86.6541 6.737 87.2819 6.94758 87.6975 7.36873C88.1176 7.7855 88.3276 8.45452 88.3276 9.3758V14.0809H87.2029Z" fill="white"/>
<path d="M92.387 2.78958C91.9636 2.78958 91.6367 2.9327 91.4063 3.21896C91.1793 3.50521 91.0659 3.90169 91.0659 4.40839C91.0659 4.96116 91.1726 5.3708 91.386 5.63731C91.6028 5.90383 91.9331 6.03708 92.3769 6.03708C92.6682 6.03708 93.0256 5.96305 93.4491 5.81499V6.42698C93.2865 6.49279 93.1188 6.54872 92.946 6.59478C92.7766 6.64085 92.5734 6.66388 92.3362 6.66388C91.679 6.66388 91.1743 6.46646 90.8219 6.07163C90.4696 5.67351 90.2935 5.11909 90.2935 4.40839C90.2935 3.72073 90.4798 3.17454 90.8524 2.76984C91.2285 2.36513 91.74 2.16278 92.387 2.16278C92.8207 2.16278 93.2373 2.26149 93.6371 2.4589L93.3424 3.04128C92.9765 2.87348 92.658 2.78958 92.387 2.78958ZM88.3574 4.40839C88.3574 3.75034 88.5268 3.13341 88.8656 2.55761C89.2043 1.98181 89.6701 1.52776 90.263 1.19544C90.8558 0.86312 91.4944 0.69696 92.1787 0.69696C92.8562 0.69696 93.4914 0.861474 94.0842 1.1905C94.6771 1.51953 95.1446 1.97194 95.4867 2.54774C95.8289 3.12354 96 3.74376 96 4.40839C96 5.05658 95.8357 5.66528 95.5071 6.2345C95.1785 6.80372 94.7177 7.25942 94.1249 7.60161C93.5321 7.9438 92.8833 8.11489 92.1787 8.11489C91.4775 8.11489 90.8304 7.94544 90.2376 7.60655C89.6447 7.26436 89.1823 6.80865 88.8503 6.23943C88.5217 5.67022 88.3574 5.05987 88.3574 4.40839ZM88.891 4.40839C88.891 4.97761 89.0383 5.51064 89.3331 6.00747C89.6278 6.50101 90.0292 6.89091 90.5374 7.17716C91.0489 7.46013 91.596 7.60161 92.1787 7.60161C92.7681 7.60161 93.3153 7.45848 93.82 7.17223C94.3248 6.88597 94.7245 6.49937 95.0192 6.01241C95.3174 5.52215 95.4664 4.98748 95.4664 4.40839C95.4664 3.83589 95.319 3.30451 95.0243 2.81425C94.7296 2.324 94.3299 1.93575 93.8251 1.6495C93.3237 1.35995 92.7749 1.21518 92.1787 1.21518C91.5892 1.21518 91.0421 1.35831 90.5374 1.64456C90.0326 1.93081 89.6312 2.31907 89.3331 2.80932C89.0383 3.29628 88.891 3.82931 88.891 4.40839Z" fill="white"/>
<path d="M25.5612 22.8755V18.3511H26.1485V22.3686H28.1847V22.8755H25.5612Z" fill="white"/>
<path d="M29.5906 18.2054C29.6776 18.2054 29.7537 18.2349 29.819 18.2941C29.8886 18.349 29.9234 18.4377 29.9234 18.5602C29.9234 18.6785 29.8886 18.7672 29.819 18.8264C29.7537 18.8855 29.6776 18.9151 29.5906 18.9151C29.4948 18.9151 29.4143 18.8855 29.3491 18.8264C29.2838 18.7672 29.2512 18.6785 29.2512 18.5602C29.2512 18.4377 29.2838 18.349 29.3491 18.2941C29.4143 18.2349 29.4948 18.2054 29.5906 18.2054ZM29.8712 19.4791V22.8755H29.2969V19.4791H29.8712Z" fill="white"/>
<path d="M32.611 19.4157C32.8416 19.4157 33.0482 19.4579 33.231 19.5424C33.4181 19.6269 33.5769 19.7558 33.7074 19.929H33.74L33.8183 19.4791H34.2752V22.9326C34.2752 23.4184 34.1468 23.7838 33.8901 24.0288C33.6378 24.2738 33.244 24.3964 32.7089 24.3964C32.1955 24.3964 31.7756 24.3245 31.4493 24.1809V23.6676C31.793 23.8451 32.2238 23.9338 32.7415 23.9338C33.0417 23.9338 33.2767 23.8472 33.4463 23.674C33.6204 23.505 33.7074 23.2726 33.7074 22.9769V22.8439C33.7074 22.7932 33.7096 22.7213 33.7139 22.6284C33.7183 22.5312 33.7226 22.4637 33.727 22.4256H33.7009C33.4659 22.7678 33.1048 22.9389 32.6175 22.9389C32.165 22.9389 31.8104 22.7847 31.5537 22.4763C31.3014 22.1679 31.1752 21.737 31.1752 21.1836C31.1752 20.6429 31.3014 20.2141 31.5537 19.8973C31.8104 19.5762 32.1629 19.4157 32.611 19.4157ZM32.6893 19.8846C32.3978 19.8846 32.1716 19.9987 32.0106 20.2268C31.8496 20.4507 31.7691 20.7717 31.7691 21.19C31.7691 21.6082 31.8474 21.9293 32.004 22.1532C32.165 22.3728 32.3978 22.4827 32.7024 22.4827C33.0548 22.4827 33.3115 22.3918 33.4725 22.2102C33.6334 22.0243 33.7139 21.7265 33.7139 21.3167V21.1836C33.7139 20.7189 33.6313 20.3873 33.4659 20.1888C33.3006 19.986 33.0417 19.8846 32.6893 19.8846Z" fill="white"/>
<path d="M36.3521 19.4727C36.3521 19.6417 36.3412 19.8001 36.3194 19.948H36.3586C36.4717 19.7748 36.624 19.6438 36.8154 19.5551C37.0112 19.4664 37.2222 19.422 37.4485 19.422C37.8748 19.422 38.1946 19.5213 38.4078 19.7199C38.621 19.9142 38.7276 20.2289 38.7276 20.664V22.8755H38.1598V20.702C38.1598 20.1571 37.8988 19.8846 37.3767 19.8846C36.9851 19.8846 36.7154 19.9923 36.5674 20.2078C36.4238 20.419 36.3521 20.7232 36.3521 21.1203V22.8755H35.7777V18.0596H36.3521V19.4727Z" fill="white"/>
<path d="M41.3718 22.4827C41.4588 22.4827 41.548 22.4763 41.6394 22.4637C41.7308 22.4468 41.8047 22.4299 41.8613 22.413V22.8375C41.8004 22.8671 41.7134 22.8903 41.6002 22.9072C41.4871 22.9283 41.3783 22.9389 41.2739 22.9389C41.0912 22.9389 40.9215 22.9093 40.7649 22.8502C40.6126 22.7868 40.4886 22.6791 40.3929 22.527C40.2972 22.3749 40.2493 22.1616 40.2493 21.887V19.91H39.7533V19.6438L40.2558 19.422L40.4842 18.6996H40.8236V19.4791H41.8352V19.91H40.8236V21.8743C40.8236 22.0813 40.8736 22.2355 40.9737 22.3369C41.0781 22.4341 41.2108 22.4827 41.3718 22.4827Z" fill="white"/>
<ellipse cx="10.3332" cy="13.8985" rx="10.3332" ry="10.0331" fill="url(#paint0_linear_1_1036)"/>
<g clip-path="url(#clip0_1_1036)">
<path d="M14.0992 8.88425C13.7628 8.59282 13.2791 8.38005 12.6989 8.27044C12.2191 8.18017 11.764 8.14922 11.382 8.13117C10.9139 8.11054 10.4107 8.0899 9.90088 8.0899C8.43408 8.0899 7.46796 8.26399 6.86298 8.63924C6.54746 8.83525 6.26975 9.16021 6.11851 9.50967C5.98682 9.81787 5.88252 10.3014 6.13806 10.8572C6.29974 11.2118 6.5592 11.4027 6.80953 11.5858C6.89819 11.6503 6.98946 11.7173 7.07551 11.7921C7.2111 11.9082 7.36235 12.0307 7.52141 12.1609L7.57617 12.2061C7.93211 12.4949 8.13421 12.7606 8.18505 13.3305C8.2359 13.9044 8.21765 14.1133 8.2007 14.7619C8.19288 15.0714 8.18505 15.3641 8.18505 15.6349C8.18505 15.6878 8.18375 15.7419 8.18375 15.7948C8.17853 16.0875 8.17462 16.3648 8.32587 16.4937C8.39888 16.5569 8.56707 16.6291 9.21637 16.6291C9.48235 16.6291 9.76528 16.6175 9.99084 16.6072C10.1408 16.6008 10.2712 16.5956 10.352 16.5956C10.4315 16.5956 10.5606 16.6008 10.7092 16.6085C10.9335 16.6188 11.2125 16.6304 11.4759 16.6304C11.97 16.6304 12.2399 16.5879 12.3494 16.4937C12.5424 16.3274 12.5333 15.7832 12.502 15.0869C12.4955 14.9412 12.489 14.8032 12.489 14.7013C12.489 14.4705 12.4824 14.7065 12.4759 14.4885C12.4551 13.7445 12.4368 13.1023 12.6741 12.6471C12.7771 12.4485 13.0274 12.2512 13.2921 12.0423C13.3938 11.9623 13.4981 11.8798 13.5985 11.7934C13.6598 11.7418 13.7263 11.689 13.7954 11.6335C14.1839 11.3266 14.6689 10.9449 14.682 10.2215C14.6924 9.67989 14.4955 9.22985 14.0992 8.88425ZM8.72092 9.01063C9.05209 8.97581 9.7027 8.91778 10.3272 8.91778C10.6206 8.91778 10.8774 8.93068 11.09 8.95647C11.279 8.97839 11.4785 8.99515 11.6728 9.01192C12.4042 9.07252 13.1578 9.13442 13.4994 9.51741C11.3051 9.66184 9.1238 9.66313 7.17069 9.51741C7.40016 9.26208 7.90995 9.09573 8.72092 9.01063ZM13.4851 10.7695C13.4681 10.785 13.4499 10.8005 13.4316 10.8173C13.3755 10.8688 13.3182 10.923 13.2634 10.9746C13.1761 11.0571 13.0939 11.1358 13.017 11.199C12.9049 11.2918 12.7823 11.3808 12.6637 11.4672C12.4564 11.618 12.2621 11.7599 12.1187 11.9211C11.5476 12.5697 11.5867 13.6117 11.6271 14.7142C11.6454 15.2029 11.6636 15.2455 11.6323 15.7432H9.03775C8.99342 15.2042 9.0195 15.132 9.04557 14.6162C9.09121 13.7084 9.13423 12.8521 8.75613 12.1829C8.58402 11.8772 8.30761 11.6799 8.01556 11.471C7.89561 11.3846 7.77174 11.2957 7.6544 11.199C7.53315 11.0971 7.37538 10.9655 7.23979 10.8443C6.94904 10.5826 6.82387 10.393 6.89037 10.0048C7.95689 10.0977 9.08729 10.1441 10.2503 10.1441C11.4237 10.1441 12.605 10.0964 13.7641 10.0036C13.7641 10.0074 13.7654 10.0113 13.7654 10.0152C13.8553 10.4368 13.7237 10.5555 13.4851 10.7695Z" fill="white"/>
<path d="M12.0764 17.1707C11.9551 17.0495 11.7582 17.0392 11.5327 17.0392H11.4518C11.4023 17.0392 11.3501 17.0392 11.2993 17.0366C11.0972 17.0263 10.8143 17.0083 10.5144 16.9876C10.1598 16.9631 9.79208 16.9386 9.52219 16.927C9.49742 16.9257 9.457 16.9219 9.41137 16.918C9.31228 16.9077 9.17668 16.8948 9.0476 16.8948C8.73469 16.8948 8.57562 16.9799 8.57562 17.1462C8.57562 17.4119 8.95503 17.4145 9.26013 17.4157C9.33184 17.4157 9.40094 17.417 9.45961 17.4196C9.68908 17.4325 9.91334 17.4467 10.1298 17.4609C10.5313 17.4867 10.9108 17.5112 11.3215 17.5292C11.3671 17.5318 11.4179 17.5357 11.4714 17.5408C11.5522 17.5486 11.637 17.5563 11.7165 17.5563C11.8169 17.5563 11.9616 17.546 12.0438 17.4506C12.0959 17.3925 12.1142 17.3126 12.1011 17.2159C12.0972 17.1991 12.0894 17.1823 12.0764 17.1707Z" fill="white"/>
<path d="M11.4297 17.898C11.3593 17.8967 11.2876 17.8954 11.2172 17.8915C10.9864 17.8799 10.7426 17.8632 10.4844 17.8464C9.96551 17.8116 9.42704 17.7755 8.99026 17.7819H8.98504C8.96027 17.7819 8.93159 17.7794 8.9029 17.7755C8.87031 17.7716 8.83771 17.769 8.80381 17.769C8.60563 17.769 8.57564 17.9148 8.57434 18.0012C8.57434 18.0631 8.59651 18.1172 8.63823 18.1585C8.74514 18.2642 8.95114 18.2732 9.2106 18.2732H9.26145C9.31882 18.2732 9.37749 18.2732 9.43095 18.2758C9.70475 18.2887 10.0359 18.3068 10.3567 18.3248C10.7843 18.348 11.2276 18.3725 11.5418 18.3854C11.5809 18.3867 11.6201 18.3906 11.6579 18.3932C11.7126 18.397 11.7648 18.4022 11.813 18.4022C11.8991 18.4022 11.9577 18.3893 12.0047 18.3596C12.049 18.3326 12.0999 18.2758 12.0999 18.1662C12.1012 17.9109 11.7596 17.9044 11.4297 17.898Z" fill="white"/>
<path d="M11.6005 18.566H9.04633C9.02417 18.566 9.00331 18.5751 8.98766 18.5905C8.97202 18.606 8.96289 18.6266 8.96289 18.6486C8.96289 19.3759 9.67347 19.7073 10.3319 19.7073C10.7869 19.7073 11.2028 19.5551 11.4454 19.3011C11.6162 19.1218 11.6983 18.8936 11.684 18.6434C11.6813 18.5996 11.6448 18.566 11.6005 18.566Z" fill="white"/>
</g>
<defs>
<linearGradient id="paint0_linear_1_1036" x1="8.47468" y1="-9.60901" x2="-7.32475" y2="41.3343" gradientUnits="userSpaceOnUse">
<stop stop-color="#0C89BB"/>
<stop offset="1" stop-color="#88D8F1"/>
</linearGradient>
<clipPath id="clip0_1_1036">
<rect width="8.70167" height="11.6173" fill="white" transform="translate(5.98236 8.08984)"/>
</clipPath>
</defs>
</svg>
