<svg width="56" height="56" viewBox="0 0 56 56" fill="none" xmlns="http://www.w3.org/2000/svg">
<path d="M22.4 46.6667H33.6C42.9334 46.6667 46.6667 42.9333 46.6667 33.6V22.4C46.6667 13.0667 42.9334 9.33333 33.6 9.33333H22.4C13.0667 9.33333 9.33337 13.0667 9.33337 22.4V33.6C9.33337 42.9333 13.0667 46.6667 22.4 46.6667Z" stroke="#2FA0CB" stroke-width="1.5" stroke-linecap="round" stroke-linejoin="round"/>
<path d="M24.5 39.6667H31.5C37.3334 39.6667 39.6667 37.3333 39.6667 31.5V24.5C39.6667 18.6667 37.3334 16.3333 31.5 16.3333H24.5C18.6667 16.3333 16.3334 18.6667 16.3334 24.5V31.5C16.3334 37.3333 18.6667 39.6667 24.5 39.6667Z" stroke="#2FA0CB" stroke-width="1.5" stroke-linecap="round" stroke-linejoin="round"/>
<path d="M18.6899 9.33334V4.66667" stroke="#2FA0CB" stroke-width="1.5" stroke-linecap="round" stroke-linejoin="round"/>
<path d="M28 9.33334V4.66667" stroke="#2FA0CB" stroke-width="1.5" stroke-linecap="round" stroke-linejoin="round"/>
<path d="M37.3334 9.33334V4.66667" stroke="#2FA0CB" stroke-width="1.5" stroke-linecap="round" stroke-linejoin="round"/>
<path d="M46.6666 18.6667H51.3333" stroke="#2FA0CB" stroke-width="1.5" stroke-linecap="round" stroke-linejoin="round"/>
<path d="M46.6666 28H51.3333" stroke="#2FA0CB" stroke-width="1.5" stroke-linecap="round" stroke-linejoin="round"/>
<path d="M46.6666 37.3333H51.3333" stroke="#2FA0CB" stroke-width="1.5" stroke-linecap="round" stroke-linejoin="round"/>
<path d="M37.3334 46.6667V51.3333" stroke="#2FA0CB" stroke-width="1.5" stroke-linecap="round" stroke-linejoin="round"/>
<path d="M28.0233 46.6667V51.3333" stroke="#2FA0CB" stroke-width="1.5" stroke-linecap="round" stroke-linejoin="round"/>
<path d="M18.6899 46.6667V51.3333" stroke="#2FA0CB" stroke-width="1.5" stroke-linecap="round" stroke-linejoin="round"/>
<path d="M4.66663 18.6667H9.33329" stroke="#2FA0CB" stroke-width="1.5" stroke-linecap="round" stroke-linejoin="round"/>
<path d="M4.66663 28H9.33329" stroke="#2FA0CB" stroke-width="1.5" stroke-linecap="round" stroke-linejoin="round"/>
<path d="M4.66663 37.3333H9.33329" stroke="#2FA0CB" stroke-width="1.5" stroke-linecap="round" stroke-linejoin="round"/>
<path d="M28 22.6333L25.8067 26.46C25.3167 27.3 25.7133 28 26.6933 28H29.3067C30.2867 28 30.6833 28.7 30.1933 29.54L28 33.3667" stroke="#2FA0CB" stroke-width="1.5" stroke-linecap="round" stroke-linejoin="round"/>
</svg>
