<svg width="56" height="56" viewBox="0 0 56 56" fill="none" xmlns="http://www.w3.org/2000/svg">
<path d="M28 32.6667H30.3333C32.9 32.6667 35 30.5667 35 28V4.66666H14C10.5 4.66666 7.44336 6.60329 5.85669 9.44996" stroke="#2FA0CB" stroke-width="1.5" stroke-linecap="round" stroke-linejoin="round"/>
<path d="M4.66663 39.6667C4.66663 43.54 7.79329 46.6667 11.6666 46.6667H14C14 44.1 16.1 42 18.6666 42C21.2333 42 23.3333 44.1 23.3333 46.6667H32.6666C32.6666 44.1 34.7666 42 37.3333 42C39.9 42 42 44.1 42 46.6667H44.3333C48.2066 46.6667 51.3333 43.54 51.3333 39.6667V32.6667H44.3333C43.05 32.6667 42 31.6167 42 30.3333V23.3333C42 22.05 43.05 21 44.3333 21H47.3432L43.3533 14.0233C42.5133 12.5767 40.9734 11.6667 39.2934 11.6667H35V28C35 30.5667 32.9 32.6667 30.3333 32.6667H28" stroke="#2FA0CB" stroke-width="1.5" stroke-linecap="round" stroke-linejoin="round"/>
<path d="M18.6667 51.3333C21.244 51.3333 23.3333 49.244 23.3333 46.6667C23.3333 44.0893 21.244 42 18.6667 42C16.0893 42 14 44.0893 14 46.6667C14 49.244 16.0893 51.3333 18.6667 51.3333Z" stroke="#2FA0CB" stroke-width="1.5" stroke-linecap="round" stroke-linejoin="round"/>
<path d="M37.3333 51.3333C39.9106 51.3333 42 49.244 42 46.6667C42 44.0893 39.9106 42 37.3333 42C34.756 42 32.6666 44.0893 32.6666 46.6667C32.6666 49.244 34.756 51.3333 37.3333 51.3333Z" stroke="#2FA0CB" stroke-width="1.5" stroke-linecap="round" stroke-linejoin="round"/>
<path d="M51.3333 28V32.6667H44.3333C43.05 32.6667 42 31.6167 42 30.3333V23.3333C42 22.05 43.05 21 44.3333 21H47.3433L51.3333 28Z" stroke="#2FA0CB" stroke-width="1.5" stroke-linecap="round" stroke-linejoin="round"/>
<path d="M4.66663 18.6667H18.6666" stroke="#2FA0CB" stroke-width="1.5" stroke-linecap="round" stroke-linejoin="round"/>
<path d="M4.66663 25.6667H14" stroke="#2FA0CB" stroke-width="1.5" stroke-linecap="round" stroke-linejoin="round"/>
<path d="M4.66663 32.6667H9.33329" stroke="#2FA0CB" stroke-width="1.5" stroke-linecap="round" stroke-linejoin="round"/>
</svg>
