<svg width="82" height="27" viewBox="0 0 82 27" fill="none" xmlns="http://www.w3.org/2000/svg">
<path fill-rule="evenodd" clip-rule="evenodd" d="M11.7275 0.103917C11.9653 -0.0346391 12.2594 -0.0346391 12.4972 0.103917L23.6149 6.5797C23.8501 6.71669 23.9947 6.96834 23.9947 7.24046V20.2038C23.9947 20.476 23.8501 20.7276 23.6149 20.8646L13.2619 26.8949C12.7521 27.1919 12.1124 26.8241 12.1124 26.2342V24.0491C12.1124 23.777 12.2569 23.5253 12.4921 23.3883L20.22 18.8871C20.4551 18.7501 20.5998 18.4984 20.5998 18.2263V9.21782C20.5998 8.9457 20.4552 8.69413 20.2201 8.55714L9.85523 2.51576C9.34898 2.2207 9.34905 1.48927 9.85537 1.19436L11.7275 0.103917Z" fill="#CCD5DE"/>
<path fill-rule="evenodd" clip-rule="evenodd" d="M0.228638 20.204C0.228638 20.4761 0.373279 20.7277 0.608441 20.8647L2.47406 21.9514C2.98384 22.2483 3.62361 21.8806 3.62361 21.2907V9.2181C3.62361 8.94598 3.76825 8.69434 4.00342 8.55734L4.94334 8.00986C5.18129 7.87129 5.47539 7.87136 5.7133 8.01L13.4289 12.5077C13.664 12.6447 13.8085 12.8962 13.8085 13.1683V17.7739C13.8085 18.3623 14.4452 18.7302 14.955 18.4364L16.8206 17.3612C17.0575 17.2247 17.2035 16.9721 17.2035 16.6987V11.1909C17.2035 10.9188 17.0589 10.6672 16.8237 10.5302L5.71117 4.0561C5.47328 3.91751 5.17926 3.9175 4.94136 4.05607L0.608439 6.57991C0.373278 6.71683 0.228638 6.96847 0.228638 7.24066V20.204Z" fill="#CCD5DE"/>
<path fill-rule="evenodd" clip-rule="evenodd" d="M7.01794 24.1589C7.01794 24.431 7.16259 24.6827 7.39775 24.8197L9.26336 25.9063C9.77313 26.2032 10.4129 25.8355 10.4129 25.2455V21.9868C10.4129 21.7145 10.2682 21.4629 10.033 21.3259L8.16737 20.2398C7.65753 19.943 7.01794 20.3107 7.01794 20.9006V24.1589Z" fill="#05CB63"/>
<path fill-rule="evenodd" clip-rule="evenodd" d="M6.72571 16.058C6.72571 16.3579 6.90106 16.6301 7.17408 16.7541L9.03969 17.6018C9.54601 17.8318 10.1207 17.4616 10.1207 16.9056V14.6631C10.1207 14.3631 9.94533 14.0909 9.67217 13.9668L7.80656 13.1196C7.30031 12.8897 6.72571 13.2598 6.72571 13.8158V16.058Z" fill="#05CB63"/>
<path d="M39.1994 18.1974H34.5226V16.9599L35.7745 16.3843V9.736L34.5226 9.16039V7.92285H39.1994V9.16039L37.9475 9.736V16.3843L39.1994 16.9599V18.1974Z" fill="#CCD5DE"/>
<path d="M49.4694 12.9594C49.4694 14.6959 48.9754 16.0054 47.9872 16.8879C47.0087 17.7609 45.632 18.1974 43.8572 18.1974H40.9504V7.92285H44.1738C45.2483 7.92285 46.1788 8.11472 46.9656 8.49846C47.7618 8.8822 48.3758 9.44823 48.8075 10.1965C49.2488 10.9352 49.4694 11.8561 49.4694 12.9594ZM47.2102 13.0169C47.2102 11.8754 46.9607 11.0408 46.4619 10.5131C45.963 9.97585 45.2387 9.70725 44.289 9.70725H43.1233V16.3987H44.0587C46.1597 16.3987 47.2102 15.2715 47.2102 13.0169Z" fill="#CCD5DE"/>
<path d="M55.9483 18.1974L53.4731 10.1389H53.4156C53.4252 10.3308 53.4396 10.6186 53.4588 11.0023C53.478 11.3861 53.4971 11.7986 53.5163 12.2399C53.5355 12.6716 53.5451 13.0649 53.5451 13.4199V18.1974H51.6024V7.92285H54.5668L56.9988 15.7799H57.0419L59.6178 7.92285H62.5821V18.1974H60.5531V13.3335C60.5531 13.0074 60.5579 12.6332 60.5676 12.2111C60.5867 11.789 60.6011 11.3908 60.6107 11.0168C60.6299 10.633 60.6443 10.3452 60.6539 10.1533H60.5963L57.9485 18.1974H55.9483Z" fill="#CCD5DE"/>
<path d="M71.4662 18.1976L70.7181 15.7513H66.9764L66.2281 18.1976H63.8824L67.5088 7.87988H70.1707L73.8116 18.1976H71.4662ZM70.1997 13.9237L69.4516 11.535C69.4034 11.3719 69.3413 11.1656 69.2641 10.9162C69.1876 10.6668 69.1111 10.4125 69.0338 10.1535C68.9573 9.89448 68.8951 9.66904 68.8471 9.47717C68.7992 9.66904 68.732 9.90889 68.6456 10.1967C68.5689 10.4749 68.4921 10.7435 68.4154 11.0025C68.3483 11.252 68.2955 11.4294 68.2571 11.535L67.5232 13.9237H70.1997Z" fill="#CCD5DE"/>
<path d="M74.2722 11.0025V8.23633H74.7679V10.5841H75.9227V11.0025H74.2722Z" fill="#CCD5DE"/>
<path d="M77.9193 11.0025H77.4229V8.65475H76.6287V8.23633H78.7135V8.65475H77.9193V11.0025Z" fill="#CCD5DE"/>
<path d="M82 9.59231C82 10.0598 81.8697 10.4124 81.6084 10.65C81.3478 10.885 80.9838 11.0025 80.5157 11.0025H79.7373V8.23633H80.597C80.8818 8.23633 81.1279 8.28797 81.3375 8.39124C81.5491 8.49459 81.7118 8.64696 81.8256 8.84841C81.9414 9.04731 82 9.2953 82 9.59231ZM81.4809 9.60782C81.4809 9.27717 81.4044 9.03442 81.252 8.87943C81.1024 8.72445 80.8838 8.64696 80.597 8.64696H80.233V10.588H80.5315C81.1644 10.588 81.4809 10.2613 81.4809 9.60782Z" fill="#CCD5DE"/>
</svg>
