<svg width="56" height="56" viewBox="0 0 56 56" fill="none" xmlns="http://www.w3.org/2000/svg">
<path d="M17.4533 42.8167L24.6866 48.4167C25.62 49.35 27.72 49.8167 29.12 49.8167H37.9866C40.7866 49.8167 43.82 47.7167 44.52 44.9167L50.12 27.8833C51.2866 24.6167 49.1866 21.8167 45.6866 21.8167H36.3533C34.9533 21.8167 33.7866 20.65 34.02 19.0167L35.1866 11.55C35.6533 9.45 34.2533 7.11666 32.1533 6.41666C30.2866 5.71666 27.9533 6.65 27.02 8.05L17.4533 22.2833" stroke="#2FA0CB" stroke-width="1.5" stroke-miterlimit="10"/>
<path d="M5.55334 42.8167V19.95C5.55334 16.6833 6.95334 15.5167 10.22 15.5167H12.5533C15.82 15.5167 17.22 16.6833 17.22 19.95V42.8167C17.22 46.0833 15.82 47.25 12.5533 47.25H10.22C6.95334 47.25 5.55334 46.0833 5.55334 42.8167Z" stroke="#2FA0CB" stroke-width="1.5" stroke-linecap="round" stroke-linejoin="round"/>
</svg>
