<svg width="56" height="56" viewBox="0 0 56 56" fill="none" xmlns="http://www.w3.org/2000/svg">
<path d="M44.3334 21C44.3334 24.3833 43.33 27.4867 41.6034 30.0767C39.0834 33.81 35.0934 36.4467 30.45 37.1233C29.6567 37.2633 28.84 37.3333 28 37.3333C27.16 37.3333 26.3434 37.2633 25.55 37.1233C20.9067 36.4467 16.9167 33.81 14.3967 30.0767C12.67 27.4867 11.6667 24.3833 11.6667 21C11.6667 11.97 18.97 4.66666 28 4.66666C37.03 4.66666 44.3334 11.97 44.3334 21Z" stroke="#2FA0CB" stroke-width="1.5" stroke-linecap="round" stroke-linejoin="round"/>
<path d="M49.5834 43.0967L45.7334 44.0066C44.87 44.2166 44.1934 44.87 44.0067 45.7333L43.19 49.1633C42.7467 51.03 40.3667 51.59 39.13 50.12L28 37.3333L16.87 50.1433C15.6334 51.6133 13.2534 51.0533 12.81 49.1866L11.9934 45.7566C11.7834 44.8933 11.1067 44.2166 10.2667 44.03L6.41669 43.12C4.64335 42.7 4.01335 40.4833 5.29669 39.2L14.3967 30.1C16.9167 33.8333 20.9067 36.47 25.55 37.1467C26.3434 37.2867 27.16 37.3567 28 37.3567C28.84 37.3567 29.6567 37.2867 30.45 37.1467C35.0934 36.47 39.0834 33.8333 41.6034 30.1L50.7034 39.2C51.9867 40.46 51.3567 42.6767 49.5834 43.0967Z" stroke="#2FA0CB" stroke-width="1.5" stroke-linecap="round" stroke-linejoin="round"/>
<path d="M29.3534 13.9533L30.73 16.7067C30.9167 17.08 31.4067 17.4533 31.85 17.5233L34.3467 17.9433C35.9334 18.2 36.3067 19.3667 35.1634 20.51L33.2267 22.4466C32.9 22.7733 32.7134 23.4033 32.83 23.87L33.39 26.2733C33.8334 28.1633 32.83 28.91 31.15 27.9066L28.8167 26.53C28.3967 26.2733 27.6967 26.2733 27.2767 26.53L24.9434 27.9066C23.2634 28.8866 22.26 28.1633 22.7034 26.2733L23.2634 23.87C23.3567 23.4267 23.1934 22.7733 22.8667 22.4466L20.93 20.51C19.7867 19.3667 20.16 18.2233 21.7467 17.9433L24.2434 17.5233C24.6634 17.4533 25.1534 17.08 25.34 16.7067L26.7167 13.9533C27.3934 12.46 28.6067 12.46 29.3534 13.9533Z" stroke="#2FA0CB" stroke-width="1.5" stroke-linecap="round" stroke-linejoin="round"/>
</svg>
