<svg width="56" height="56" viewBox="0 0 56 56" fill="none" xmlns="http://www.w3.org/2000/svg">
<path d="M39.6666 43.0035H30.3333L19.9499 49.91C18.4099 50.9367 16.3333 49.8401 16.3333 47.9735V43.0035C9.33329 43.0035 4.66663 38.3368 4.66663 31.3368V17.3366C4.66663 10.3366 9.33329 5.66998 16.3333 5.66998H39.6666C46.6666 5.66998 51.3333 10.3366 51.3333 17.3366V31.3368C51.3333 38.3368 46.6666 43.0035 39.6666 43.0035Z" stroke="#2FA0CB" stroke-width="1.5" stroke-miterlimit="10" stroke-linecap="round" stroke-linejoin="round"/>
<path d="M28 26.5066V26.0167C28 24.43 28.98 23.59 29.96 22.9133C30.9167 22.26 31.8733 21.42 31.8733 19.88C31.8733 17.7334 30.1466 16.0066 28 16.0066C25.8533 16.0066 24.1267 17.7334 24.1267 19.88" stroke="#2FA0CB" stroke-width="1.5" stroke-linecap="round" stroke-linejoin="round"/>
<path d="M27.9895 32.0833H28.0105" stroke="#2FA0CB" stroke-width="1.5" stroke-linecap="round" stroke-linejoin="round"/>
</svg>
