<svg width="15" height="16" viewBox="0 0 15 16" fill="none" xmlns="http://www.w3.org/2000/svg">
<path d="M13.0078 2.11383C14.2383 3.19781 14.9121 5.57086 14.4434 9.35016C14.0039 12.983 11.25 13.3345 10.7812 13.5103C10.5469 13.5689 8.70117 14.0377 6.29883 13.8326C6.03516 14.1548 5.68359 14.5357 5.41992 14.8287C4.95117 15.3267 4.6875 15.7955 4.18945 15.649C3.7793 15.5025 3.80859 14.8873 3.80859 14.8873V13.3931C0.292969 12.397 0.351562 8.73492 0.380859 6.80133C0.410156 4.83844 0.791016 3.28571 1.875 2.20172C3.80859 0.443909 7.76367 0.678284 7.76367 0.678284C11.1035 0.678284 12.627 1.79156 13.0078 2.11383ZM13.3887 9.05719C13.7988 5.92242 13.2715 3.78375 12.2168 2.87555C11.8945 2.61188 10.5469 1.73297 7.70508 1.73297C7.70508 1.73297 4.33594 1.4986 2.69531 2.99274C1.78711 3.90094 1.49414 5.2193 1.46484 6.85992C1.43555 8.47125 1.25977 11.5767 4.21875 12.397C4.21875 12.397 4.21875 14.7115 4.21875 14.9166C4.21875 15.2388 4.39453 15.2388 4.54102 15.0923C5.00977 14.5943 6.5332 12.7779 6.5332 12.7779C8.58398 12.8951 10.1953 12.4849 10.3711 12.4556C10.7812 12.3091 13.0371 12.1041 13.3887 9.05719ZM9.31641 6.71344C9.3457 6.94781 8.96484 6.97711 8.96484 6.71344C8.90625 6.06891 8.61328 5.77594 7.99805 5.71735C7.73438 5.71735 7.76367 5.33649 8.02734 5.33649C8.84766 5.39508 9.28711 5.86383 9.31641 6.71344ZM9.93164 7.03571C9.96094 5.80524 9.16992 4.80914 7.70508 4.72125C7.44141 4.69196 7.4707 4.3111 7.73438 4.34039C9.43359 4.45758 10.3418 5.62946 10.3125 7.03571C10.3125 7.29938 9.93164 7.27008 9.93164 7.03571ZM11.3086 7.41656C11.3086 7.68024 10.9277 7.68024 10.9277 7.41656C10.8984 5.04352 9.31641 3.75446 7.38281 3.72516C7.14844 3.72516 7.14844 3.3443 7.38281 3.3443C9.55078 3.3736 11.2793 4.86774 11.3086 7.41656ZM10.957 10.2877V10.317C10.6641 10.8736 10.0488 11.4888 9.46289 11.2838H9.43359C8.81836 11.108 7.38281 10.3463 6.44531 9.61383C5.97656 9.23297 5.53711 8.79352 5.21484 8.38336C4.92188 8.0025 4.59961 7.56305 4.30664 7.00641C3.69141 5.89313 3.54492 5.36578 3.54492 5.36578C3.33984 4.77985 3.95508 4.16461 4.51172 3.87164H4.54102C4.80469 3.72516 5.06836 3.75446 5.21484 3.98883C5.21484 3.98883 5.5957 4.39899 5.74219 4.63336C5.88867 4.80914 6.09375 5.13141 6.18164 5.30719C6.35742 5.62946 6.26953 5.95172 6.09375 6.09821L5.74219 6.39117C5.56641 6.53766 5.56641 6.80133 5.56641 6.80133C5.56641 6.80133 6.09375 8.76422 8.05664 9.26227C8.05664 9.26227 8.32031 9.29156 8.4668 9.11578L8.73047 8.76422C8.87695 8.58844 9.19922 8.47125 9.52148 8.64703C9.96094 8.88141 10.4883 9.26227 10.8691 9.61383C11.0742 9.78961 11.1035 10.024 10.957 10.2877Z" fill="white"/>
</svg>
