<svg width="13" height="14" viewBox="0 0 13 14" fill="none" xmlns="http://www.w3.org/2000/svg">
<g clip-path="url(#clip0_4_122)">
<path d="M4.10777 1.08769C5.74015 0.449626 7.64163 0.493763 9.23049 1.23486C8.77776 1.1674 8.31724 1.21826 7.86907 1.29256C6.65193 1.51799 5.49525 2.07964 4.59113 2.91402C3.72422 3.74971 3.11672 4.85852 2.94517 6.0448C2.83165 6.88536 2.93684 7.76704 3.32146 8.53211C3.71777 9.33486 4.41541 9.99322 5.25625 10.333C6.06647 10.6692 7.00633 10.6655 7.82702 10.3654C9.0584 9.92221 9.94318 8.72552 10.0443 7.44701C10.108 6.60908 9.90019 5.71766 9.32614 5.07498C8.77816 4.44588 7.97668 4.09937 7.17466 3.90214C7.13167 3.1264 7.50433 2.36001 8.0953 1.85553C8.4235 1.56529 8.83082 1.38031 9.25199 1.26187L9.28396 1.25106C10.4897 1.81812 11.5142 2.75328 12.1669 3.90135C12.7262 4.87881 13.0179 6.00514 12.989 7.12712C12.9835 8.57796 12.4305 10.0144 11.4826 11.1238C10.5863 12.1817 9.33259 12.9427 7.9662 13.2475C6.59618 13.5575 5.12218 13.4237 3.84002 12.8527C2.5854 12.3032 1.52249 11.3479 0.846346 10.1728C0.283856 9.19626 -0.0137112 8.07032 0.0110077 6.94702C0.0136946 5.54744 0.520432 4.15866 1.40521 3.06421C2.11198 2.19031 3.04955 1.49546 4.10777 1.08769Z" fill="#E60000"/>
<path d="M7.86906 1.29335C8.31723 1.21904 8.77775 1.16818 9.23049 1.23564L9.29551 1.24644L9.25198 1.26265C8.83082 1.38109 8.42349 1.56607 8.0953 1.85632C7.50432 2.36079 7.13166 3.12718 7.17465 3.90293C7.97667 4.10016 8.77816 4.44666 9.32614 5.07577C9.90018 5.71844 10.108 6.60987 10.0443 7.4478C9.94317 8.7263 9.05839 9.92299 7.82701 10.3662C7.00632 10.6663 6.06646 10.67 5.25625 10.3338C4.4154 9.99401 3.71776 9.33565 3.32145 8.53289C2.93683 7.76782 2.83164 6.88615 2.94516 6.04558C3.11672 4.8593 3.72421 3.75049 4.59112 2.9148C5.49524 2.08042 6.65193 1.51877 7.86906 1.29335Z" fill="white"/>
</g>
<defs>
<clipPath id="clip0_4_122">
<rect width="13" height="12.8167" fill="white" transform="translate(0 0.605469)"/>
</clipPath>
</defs>
</svg>
